<svg width="26" height="15" viewBox="0 0 26 15" fill="none" xmlns="http://www.w3.org/2000/svg">
<path d="M18.7536 7.65204e-08H6.25089C5.2204 -0.00017655 4.20584 0.305419 3.29757 0.889573C2.3893 1.47373 1.61548 2.31833 1.04502 3.34816C0.474562 4.37799 0.125147 5.56113 0.0278957 6.7922C-0.0693555 8.02327 0.0885716 9.26412 0.487613 10.4042C0.886655 11.5444 1.51444 12.5484 2.31506 13.327C3.11568 14.1055 4.06431 14.6344 5.07648 14.8666C6.08864 15.0988 7.13297 15.0271 8.11644 14.6578C9.09991 14.2885 9.99205 13.6331 10.7134 12.75H14.2884C15.0097 13.633 15.9017 14.2883 16.885 14.6576C17.8684 15.027 18.9126 15.0988 19.9246 14.8668C20.9367 14.6347 21.8853 14.106 22.6859 13.3277C23.4866 12.5494 24.1144 11.5456 24.5136 10.4058C24.9129 9.26587 25.071 8.02521 24.9741 6.79424C24.8771 5.56328 24.528 4.38015 23.9579 3.35021C23.3878 2.32027 22.6143 1.47543 21.7063 0.890929C20.7983 0.306424 19.784 0.000364459 18.7536 7.65204e-08ZM9.68839 8.0625C9.68839 8.21168 9.63901 8.35476 9.5511 8.46025C9.46319 8.56574 9.34396 8.625 9.21964 8.625H7.18839V11.0625C7.18839 11.2117 7.13901 11.3548 7.0511 11.4602C6.96319 11.5657 6.84396 11.625 6.71964 11.625H5.78214C5.65782 11.625 5.5386 11.5657 5.45069 11.4602C5.36278 11.3548 5.31339 11.2117 5.31339 11.0625V8.625H3.28214C3.15782 8.625 3.0386 8.56574 2.95069 8.46025C2.86278 8.35476 2.81339 8.21168 2.81339 8.0625V6.9375C2.81339 6.78832 2.86278 6.64524 2.95069 6.53975C3.0386 6.43426 3.15782 6.375 3.28214 6.375H5.31339V3.9375C5.31339 3.78832 5.36278 3.64524 5.45069 3.53975C5.5386 3.43426 5.65782 3.375 5.78214 3.375H6.71964C6.84396 3.375 6.96319 3.43426 7.0511 3.53975C7.13901 3.64524 7.18839 3.78832 7.18839 3.9375V6.375H9.21964C9.34396 6.375 9.46319 6.43426 9.5511 6.53975C9.63901 6.64524 9.68839 6.78832 9.68839 6.9375V8.0625ZM18.1259 11.625C17.8169 11.625 17.5148 11.515 17.2578 11.309C17.0009 11.103 16.8006 10.8101 16.6823 10.4675C16.5641 10.1249 16.5331 9.74792 16.5934 9.3842C16.6537 9.02049 16.8025 8.6864 17.021 8.42417C17.2396 8.16195 17.518 7.98337 17.8211 7.91103C18.1242 7.83868 18.4383 7.87581 18.7238 8.01773C19.0093 8.15964 19.2534 8.39997 19.4251 8.70831C19.5968 9.01665 19.6884 9.37916 19.6884 9.75C19.6884 10.2473 19.5238 10.7242 19.2308 11.0758C18.9377 11.4275 18.5403 11.625 18.1259 11.625ZM20.6259 7.125C20.3169 7.125 20.0148 7.01503 19.7578 6.80901C19.5009 6.60298 19.3006 6.31014 19.1823 5.96753C19.0641 5.62492 19.0331 5.24792 19.0934 4.88421C19.1537 4.52049 19.3025 4.1864 19.521 3.92418C19.7396 3.66195 20.018 3.48337 20.3211 3.41103C20.6242 3.33868 20.9383 3.37581 21.2238 3.51773C21.5093 3.65964 21.7534 3.89997 21.9251 4.20831C22.0968 4.51665 22.1884 4.87916 22.1884 5.25C22.1884 5.74728 22.0238 6.2242 21.7308 6.57583C21.4377 6.92745 21.0403 7.125 20.6259 7.125Z" fill="white"/>
</svg>
