<svg width="25" height="15" viewBox="0 0 25 15" fill="none" xmlns="http://www.w3.org/2000/svg">
<path d="M24.5264 4.95312C24.7168 4.83203 25 4.94531 25 5.13672V13.125C25 14.1602 23.9502 15 22.6562 15H2.34375C1.0498 15 0 14.1602 0 13.125V5.14062C0 4.94531 0.27832 4.83594 0.473633 4.95703C1.56738 5.63672 3.01758 6.5 7.99805 9.39453C9.02832 9.99609 10.7666 11.2617 12.5 11.2539C14.2432 11.2656 16.0156 9.97266 17.0068 9.39453C21.9873 6.5 23.4326 5.63281 24.5264 4.95312ZM12.5 10C13.6328 10.0156 15.2637 8.85938 16.084 8.38281C22.5635 4.62109 23.0566 4.29297 24.5508 3.35547C24.834 3.17969 25 2.90625 25 2.61719V1.875C25 0.839844 23.9502 0 22.6562 0H2.34375C1.0498 0 0 0.839844 0 1.875V2.61719C0 2.90625 0.166016 3.17578 0.449219 3.35547C1.94336 4.28906 2.43652 4.62109 8.91602 8.38281C9.73633 8.85938 11.3672 10.0156 12.5 10Z" fill="#CEB2F1"/>
</svg>
