<svg width="18" height="23" viewBox="0 0 18 23" fill="none" xmlns="http://www.w3.org/2000/svg">
<path d="M15.5003 15.3159L12.0963 13.1033L13.3796 10.7505C13.6788 10.2011 13.8357 9.58553 13.8362 8.95992V5.23532C13.8362 3.84682 13.2846 2.5152 12.3028 1.53339C11.321 0.551576 9.98938 0 8.60088 0C7.21239 0 5.88077 0.551576 4.89896 1.53339C3.91714 2.5152 3.36557 3.84682 3.36557 5.23532V8.95992C3.36603 9.58554 3.523 10.2011 3.82216 10.7506L5.10552 13.1033L1.70148 15.3159C1.17833 15.6546 0.748459 16.119 0.451212 16.6668C0.153964 17.2146 -0.00116925 17.8281 6.63522e-06 18.4513V22.4371H17.2018V18.4513C17.2029 17.8281 17.0478 17.2146 16.7505 16.6668C16.4533 16.1191 16.0234 15.6546 15.5003 15.3159ZM15.706 20.9413H1.49581V18.4513C1.49511 18.0774 1.5882 17.7092 1.76656 17.3806C1.94491 17.0519 2.20284 16.7733 2.51674 16.5701L7.08175 13.6028L5.13534 10.0343C4.95584 9.70464 4.86166 9.3353 4.86137 8.95992V5.23532C4.86137 4.24354 5.25535 3.29238 5.95665 2.59108C6.65794 1.88979 7.6091 1.4958 8.60088 1.4958C9.59266 1.4958 10.5438 1.88979 11.2451 2.59108C11.9464 3.29238 12.3404 4.24354 12.3404 5.23532V8.95992C12.3401 9.3353 12.2459 9.70464 12.0664 10.0343L10.1201 13.6028L14.6852 16.5701C14.999 16.7733 15.2569 17.052 15.4353 17.3806C15.6136 17.7093 15.7067 18.0774 15.706 18.4513V20.9413Z" fill="#CEB2F1"/>
</svg>
